<svg width="60" height="130" xmlns="http://www.w3.org/2000/svg">
 <!-- Created with Method Draw - http://github.com/duopixel/Method-Draw/ -->

 <g>
  <title>background</title>
  <rect fill="none" id="canvas_background" height="132" width="62" y="-1" x="-1"/>
  <g display="none" overflow="visible" y="0" x="0" height="100%" width="100%" id="canvasGrid">
   <rect fill="url(#gridpattern)" stroke-width="0" y="1" x="1" height="400" width="580"/>
  </g>
 </g>
 <g>
  <title>Layer 1</title>
  <g transform="rotate(145 26.648189544677734,71.05564880371094) matrix(0.6745606634567345,0,0,0.6745606634567345,0,0) " id="svg_5">
   <g id="svg_6">
    <path id="svg_7" fill="#010002" d="m-11.725079,187.217275c-6.009,0 -12.035,-0.865 -17.907,-2.572l-9.857,-2.864l9.857,-2.864c34.196,-9.947 60.898,-51.399 65.636,-101.419l-32.472,0l52.622,-52.622l52.622,52.622l-32.627,0c-5.699,62.747 -43.135,109.719 -87.874,109.719zm-6.301,-6.319c2.094,0.233 4.201,0.352 6.301,0.352c42.245,0 77.563,-45.981 82.158,-106.956l0.209,-2.757l23.736,0l-38.218,-38.218l-38.218,38.218l24.53,0l-0.245,3.21c-3.759,49.817 -27.471,90.887 -60.253,106.151z"/>
   </g>
  </g>
  <g transform="matrix(0.6745606634567345,0,0,0.6745606634567345,0,0) " id="svg_8"/>
  <g transform="matrix(0.6745606634567345,0,0,0.6745606634567345,0,0) " id="svg_9"/>
  <g transform="matrix(0.6745606634567345,0,0,0.6745606634567345,0,0) " id="svg_10"/>
  <g transform="matrix(0.6745606634567345,0,0,0.6745606634567345,0,0) " id="svg_11"/>
  <g transform="matrix(0.6745606634567345,0,0,0.6745606634567345,0,0) " id="svg_12"/>
  <g transform="matrix(0.6745606634567345,0,0,0.6745606634567345,0,0) " id="svg_13"/>
  <g transform="matrix(0.6745606634567345,0,0,0.6745606634567345,0,0) " id="svg_14"/>
  <g transform="matrix(0.6745606634567345,0,0,0.6745606634567345,0,0) " id="svg_15"/>
  <g transform="matrix(0.6745606634567345,0,0,0.6745606634567345,0,0) " id="svg_16"/>
  <g transform="matrix(0.6745606634567345,0,0,0.6745606634567345,0,0) " id="svg_17"/>
  <g transform="matrix(0.6745606634567345,0,0,0.6745606634567345,0,0) " id="svg_18"/>
  <g transform="matrix(0.6745606634567345,0,0,0.6745606634567345,0,0) " id="svg_19"/>
  <g transform="matrix(0.6745606634567345,0,0,0.6745606634567345,0,0) " id="svg_20"/>
  <g transform="matrix(0.6745606634567345,0,0,0.6745606634567345,0,0) " id="svg_21"/>
  <g transform="matrix(0.6745606634567345,0,0,0.6745606634567345,0,0) " id="svg_22"/>
  <!-- Created with Method Draw - http://github.com/duopixel/Method-Draw/ -->
 </g>
</svg>